<svg width="183" height="46" viewBox="0 0 183 46" fill="none" xmlns="http://www.w3.org/2000/svg">
<path d="M26.8622 4.04C26.9422 4.49333 26.9955 4.81333 27.0222 5C27.0755 5.16 27.1022 5.38667 27.1022 5.68C27.1022 6.56 26.9022 7.38667 26.5022 8.16C26.1289 8.90667 25.6089 9.44 24.9422 9.76C24.4089 9.04 23.7555 8.42667 22.9822 7.92C22.2089 7.38667 21.3555 6.96 20.4222 6.64C19.5155 6.29333 18.5689 6.04 17.5822 5.88C16.5955 5.72 15.6355 5.64 14.7022 5.64C13.7689 5.64 12.8889 5.72 12.0622 5.88C11.2622 6.01333 10.5422 6.21333 9.90219 6.48C9.28886 6.72 8.79552 7.02667 8.42219 7.4C8.07552 7.77333 7.90219 8.2 7.90219 8.68C7.98219 9.26667 8.34219 9.86667 8.98219 10.48C9.62219 11.0667 10.4089 11.6533 11.3422 12.24C12.2755 12.8 13.3022 13.36 14.4222 13.92C15.5689 14.48 16.6889 15.0133 17.7822 15.52C19.1422 16.16 20.3155 16.76 21.3022 17.32C22.2889 17.8533 23.1022 18.4533 23.7422 19.12C24.3822 19.76 24.8622 20.4933 25.1822 21.32C25.5022 22.1467 25.6622 23.1467 25.6622 24.32C25.6622 25.68 25.4355 26.96 24.9822 28.16C24.5289 29.3333 23.8622 30.36 22.9822 31.24C22.1289 32.12 21.0889 32.8 19.8622 33.28C18.6355 33.7867 17.2622 34.04 15.7422 34.04C14.2489 34.04 12.6355 33.8133 10.9022 33.36C9.16885 32.9067 7.54219 32.28 6.02219 31.48C4.52885 30.7067 3.27552 29.8133 2.26219 28.8C1.27552 27.76 0.782188 26.6667 0.782188 25.52C0.782188 24.9867 0.928854 24.3067 1.22219 23.48C1.54219 22.6533 2.10219 21.7867 2.90219 20.88C2.98219 21.68 3.40885 22.6267 4.18219 23.72C4.98219 24.8133 6.16885 25.8267 7.74219 26.76C9.20885 27.6133 10.7155 28.24 12.2622 28.64C13.8355 29.0133 15.3022 29.2 16.6622 29.2C18.1555 29.2 19.3689 29.0133 20.3022 28.64C21.2355 28.2667 21.9689 27.8267 22.5022 27.32C23.0355 26.7867 23.4089 26.2533 23.6222 25.72C23.8355 25.1867 23.9555 24.76 23.9822 24.44C23.9555 23.9067 23.7022 23.4 23.2222 22.92C22.7689 22.4133 22.1422 21.9333 21.3422 21.48C20.5689 21 19.6622 20.52 18.6222 20.04C17.5822 19.56 16.5022 19.08 15.3822 18.6C13.7022 17.8533 12.2489 17.16 11.0222 16.52C9.82219 15.8533 8.82219 15.1867 8.02219 14.52C7.24885 13.8267 6.67552 13.1067 6.30219 12.36C5.95552 11.6133 5.78219 10.76 5.78219 9.8C5.78219 8.30667 6.23552 6.89333 7.14219 5.56C8.04885 4.22666 9.35552 3.21333 11.0622 2.52C11.9155 2.14667 12.8222 1.88 13.7822 1.72C14.7689 1.56 15.7289 1.48 16.6622 1.48C18.4222 1.48 20.1422 1.72 21.8222 2.2C23.5022 2.68 25.1822 3.29333 26.8622 4.04ZM35.1881 11.6C35.8815 11.8133 36.5348 12.2933 37.1481 13.04C37.7615 13.76 38.2148 14.56 38.5081 15.44C38.2148 16.16 37.7615 17.0267 37.1481 18.04C36.5348 19.0533 35.9215 20.0933 35.3081 21.16C34.6948 22.2 34.1348 23.2 33.6281 24.16C33.1481 25.0933 32.8681 25.8667 32.7881 26.48C33.2148 26.0267 33.6815 25.5067 34.1881 24.92C34.7215 24.3067 35.2281 23.7067 35.7081 23.12C36.2148 22.5067 36.6815 21.96 37.1081 21.48C37.5348 20.9733 37.8681 20.6 38.1081 20.36C38.6148 19.8267 39.2148 19.2133 39.9081 18.52C40.6015 17.8 41.3215 17.1333 42.0681 16.52C42.8415 15.88 43.6148 15.3467 44.3881 14.92C45.1615 14.4667 45.8681 14.24 46.5081 14.24C47.2015 14.24 47.7748 14.48 48.2281 14.96C48.7081 15.4133 49.0815 15.8933 49.3481 16.4C49.3481 16.4533 49.2415 16.5333 49.0281 16.64C48.8415 16.72 48.5615 16.9733 48.1881 17.4C47.8148 17.88 47.3881 18.5467 46.9081 19.4C46.4548 20.2267 46.0015 21.1333 45.5481 22.12C45.1215 23.08 44.7615 24.0667 44.4681 25.08C44.1748 26.0933 44.0281 27.0133 44.0281 27.84C44.0281 28.5067 44.1081 28.9333 44.2681 29.12C44.4548 29.3067 44.7081 29.4 45.0281 29.4C45.3215 29.4 45.6281 29.3333 45.9481 29.2C46.2681 29.0667 46.5215 29 46.7081 29C46.8148 29.0533 46.8948 29.1733 46.9481 29.36C47.0281 29.52 47.0681 29.6667 47.0681 29.8C46.8548 29.9867 46.6015 30.1733 46.3081 30.36C46.0148 30.5467 45.7081 30.72 45.3881 30.88C45.0681 31.04 44.7481 31.1733 44.4281 31.28C44.1348 31.3867 43.8681 31.44 43.6281 31.44C42.8548 31.44 42.2148 31.32 41.7081 31.08C41.2281 30.8667 40.8415 30.5733 40.5481 30.2C40.2815 29.8267 40.0948 29.3867 39.9881 28.88C39.8815 28.3467 39.8281 27.7867 39.8281 27.2C39.8281 26.88 39.8548 26.52 39.9081 26.12C39.9615 25.72 40.0681 25.2533 40.2281 24.72C40.3881 24.16 40.6148 23.5067 40.9081 22.76C41.2015 21.9867 41.5748 21.0667 42.0281 20C41.9748 20 41.6148 20.1867 40.9481 20.56C40.2815 20.9333 39.5615 21.5067 38.7881 22.28C37.5348 23.48 36.4015 24.6667 35.3881 25.84C34.4015 27.0133 33.3881 28.32 32.3481 29.76C31.7615 30.5867 31.2415 31.28 30.7881 31.84C30.3615 32.4267 29.9881 32.8133 29.6681 33C29.1081 32.68 28.6948 32.2267 28.4281 31.64C28.1615 31.08 27.9615 30.4933 27.8281 29.88C27.8281 29.3733 27.8948 28.7333 28.0281 27.96C28.1881 27.1867 28.3881 26.3333 28.6281 25.4C28.8948 24.44 29.2148 23.44 29.5881 22.4C29.9615 21.36 30.3748 20.32 30.8281 19.28C31.8415 16.9333 32.7615 15.0933 33.5881 13.76C34.4415 12.4267 34.9748 11.7067 35.1881 11.6ZM64.1097 14.84C64.3764 14.84 64.683 14.8933 65.0297 15C65.403 15.08 65.7364 15.2 66.0297 15.36C66.323 15.4933 66.563 15.64 66.7497 15.8C66.963 15.96 67.0697 16.1067 67.0697 16.24C66.5364 17.36 66.043 18.4933 65.5897 19.64C65.1364 20.76 64.7497 21.84 64.4297 22.88C64.1097 23.92 63.8564 24.8933 63.6697 25.8C63.5097 26.7067 63.4297 27.4933 63.4297 28.16C63.4297 28.9067 63.5097 29.5333 63.6697 30.04C63.8297 30.52 64.0964 30.8667 64.4697 31.08C64.1497 31.2933 63.7364 31.4667 63.2297 31.6C62.723 31.7333 62.2697 31.8 61.8697 31.8C60.4297 31.8 59.7097 30.8133 59.7097 28.84C59.7097 27.32 60.2164 25.24 61.2297 22.6C60.6964 23.8267 60.083 24.9867 59.3897 26.08C58.6964 27.1467 57.9897 28.0933 57.2697 28.92C56.5497 29.7467 55.8164 30.4267 55.0697 30.96C54.3497 31.4667 53.683 31.7733 53.0697 31.88C52.083 31.8267 51.283 31.36 50.6697 30.48C50.0564 29.5733 49.7497 28.4267 49.7497 27.04C49.7497 25.5467 50.0697 23.9733 50.7097 22.32C51.3497 20.6667 52.163 19.1333 53.1497 17.72C54.163 16.3067 55.2564 15.1333 56.4297 14.2C57.603 13.24 58.7364 12.7333 59.8297 12.68C60.0964 12.76 60.3897 12.92 60.7097 13.16C61.0564 13.4 61.3764 13.68 61.6697 14C61.9897 14.32 62.2564 14.6533 62.4697 15C62.683 15.32 62.803 15.6 62.8297 15.84C61.763 16 60.6564 16.52 59.5097 17.4C58.3897 18.28 57.363 19.3467 56.4297 20.6C55.523 21.8267 54.7764 23.1467 54.1897 24.56C53.603 25.9733 53.3097 27.2933 53.3097 28.52C53.3097 29.0267 53.4964 29.3467 53.8697 29.48C54.643 29.32 55.5364 28.6667 56.5497 27.52C57.563 26.3467 58.7897 24.5467 60.2297 22.12C60.4964 21.64 60.7897 21.1067 61.1097 20.52C61.4564 19.9333 61.803 19.32 62.1497 18.68C62.4964 18.04 62.8297 17.4 63.1497 16.76C63.4964 16.0933 63.8164 15.4533 64.1097 14.84ZM66.1788 44.24C65.8054 44.1333 65.5921 43.7333 65.5388 43.04C65.4321 42.6933 65.3521 42.28 65.2988 41.8C65.2721 41.32 65.2588 40.7733 65.2588 40.16C65.2588 39.6 65.3521 38.8267 65.5388 37.84C65.7254 36.88 65.9788 35.7867 66.2988 34.56C66.6454 33.3333 67.0588 32.0133 67.5388 30.6C68.0188 29.16 68.5521 27.7067 69.1388 26.24C69.8588 24.4 70.4854 22.8133 71.0188 21.48C71.5521 20.12 71.9921 18.9467 72.3388 17.96C72.7121 16.9733 73.0054 16.16 73.2188 15.52C73.4588 14.88 73.6454 14.3333 73.7788 13.88C73.8854 13.56 74.0454 13.1733 74.2588 12.72C74.4721 12.2667 74.7121 11.8133 74.9788 11.36C75.2721 10.88 75.5654 10.44 75.8588 10.04C76.1521 9.61333 76.4188 9.29333 76.6588 9.08C77.5921 9.21333 78.4721 9.45333 79.2988 9.8C80.1254 10.1467 80.6321 10.48 80.8188 10.8C80.4454 11.1467 80.0188 11.6933 79.5388 12.44C79.0588 13.16 78.5921 13.96 78.1388 14.84C77.6854 15.6933 77.2721 16.5733 76.8988 17.48C76.5254 18.3867 76.2454 19.1867 76.0588 19.88C76.3254 19.4267 76.6721 18.9333 77.0988 18.4C77.5254 17.8667 78.1788 17.1333 79.0588 16.2C80.0454 15.1867 80.9654 14.4133 81.8188 13.88C82.6988 13.32 83.4588 13.04 84.0988 13.04C85.1121 13.04 85.9388 13.32 86.5788 13.88C87.2454 14.44 87.5788 15.16 87.5788 16.04C87.5788 17.96 87.2588 19.8667 86.6188 21.76C85.9788 23.6267 85.0588 25.32 83.8588 26.84C83.4054 27.4267 82.8721 27.9867 82.2588 28.52C81.6454 29.0533 81.0054 29.5333 80.3388 29.96C79.6721 30.36 79.0188 30.68 78.3788 30.92C77.7388 31.16 77.1654 31.28 76.6588 31.28C76.1788 31.28 75.7521 31.1867 75.3788 31C75.0321 30.7867 74.7921 30.5333 74.6588 30.24C75.6988 29.6267 76.7121 28.7733 77.6988 27.68C78.6854 26.5867 79.5921 25.3333 80.4188 23.92C81.2721 22.48 82.0054 20.9333 82.6188 19.28C83.2588 17.6267 83.7388 15.9467 84.0588 14.24C83.0454 14.7733 82.1254 15.36 81.2988 16C80.4988 16.6133 79.6988 17.4267 78.8988 18.44C77.9388 19.6133 77.1788 20.56 76.6188 21.28C76.0588 22 75.5921 22.6133 75.2188 23.12C74.8721 23.6267 74.5788 24.1067 74.3388 24.56C74.1254 24.9867 73.8854 25.52 73.6188 26.16C73.2454 27.0133 72.8054 28.1467 72.2988 29.56C71.8188 30.9467 71.3121 32.5067 70.7788 34.24C70.2721 35.9733 69.7521 37.8133 69.2188 39.76C68.7121 41.7333 68.2188 43.6933 67.7388 45.64C67.4454 45.5867 67.1921 45.3733 66.9788 45C66.7654 44.76 66.6054 44.5867 66.4988 44.48C66.4188 44.3733 66.3121 44.2933 66.1788 44.24ZM90.9863 42.56C90.3196 42.2933 89.9196 41.7867 89.7863 41.04C89.6796 40.32 89.2263 39.7333 88.4263 39.28C88.6396 37.92 88.8796 36.5467 89.1463 35.16C89.4129 33.7733 89.7463 32.2 90.1463 30.44C90.5729 28.6533 91.0929 26.5867 91.7063 24.24C92.3463 21.8667 93.1463 19 94.1063 15.64C93.2263 15.64 92.5329 15.6533 92.0263 15.68C91.5196 15.7067 91.0263 15.76 90.5463 15.84C90.4396 15.7333 90.3463 15.5867 90.2663 15.4C90.2129 15.2133 90.1862 15.04 90.1862 14.88C90.4529 14.7733 90.9996 14.64 91.8263 14.48C92.6529 14.2933 93.5596 14.1333 94.5463 14C95.1863 11.9733 95.9196 10.16 96.7463 8.56C97.5729 6.93333 98.4663 5.54667 99.4263 4.4C100.386 3.25333 101.4 2.37333 102.466 1.76C103.533 1.14667 104.613 0.84 105.706 0.84C106.026 0.84 106.333 0.866666 106.626 0.919999C106.92 0.946665 107.146 0.959998 107.306 0.959998C107.546 0.773332 107.866 0.613333 108.266 0.48C108.666 0.319998 109.013 0.239998 109.306 0.239998C109.626 0.239998 110.04 0.413331 110.546 0.759998C110.333 1.13333 110.106 1.64 109.866 2.28C109.626 2.92 109.426 3.54667 109.266 4.16C108.6 6.13333 107.893 7.41333 107.146 8C106.853 8 106.693 7.61333 106.666 6.84C106.64 6.28 106.56 5.73333 106.426 5.2C106.32 4.96 106.24 4.74667 106.186 4.56C106.16 4.37333 106.146 4.13333 106.146 3.84C106.146 3.68 106.16 3.49333 106.186 3.28C106.213 3.04 106.266 2.65333 106.346 2.12C105.893 2.12 105.386 2.4 104.826 2.96C104.293 3.52 103.72 4.32 103.106 5.36C102.52 6.37333 101.92 7.58667 101.306 9C100.693 10.4133 100.106 11.9733 99.5463 13.68L102.906 13.56C103.04 13.6933 103.146 14 103.226 14.48C103.333 14.9333 103.4 15.4133 103.426 15.92L99.0263 15.68C98.0129 18.6933 97.0663 21.5733 96.1863 24.32C95.3063 27.0667 94.5196 29.6 93.8263 31.92C93.1329 34.24 92.5329 36.3067 92.0263 38.12C91.5463 39.96 91.1996 41.44 90.9863 42.56ZM101.498 30.2C101.631 29.4267 101.858 28.4133 102.178 27.16C102.525 25.88 102.925 24.5333 103.378 23.12C103.831 21.68 104.311 20.24 104.818 18.8C105.325 17.36 105.818 16.0667 106.298 14.92C106.645 14.0933 106.951 13.4533 107.218 13C107.485 12.52 107.778 12.12 108.098 11.8C108.471 11.8533 108.858 11.9467 109.258 12.08C109.658 12.2133 110.045 12.3733 110.418 12.56C110.791 12.7467 111.125 12.9467 111.418 13.16C111.711 13.3467 111.938 13.5333 112.098 13.72C111.378 14.5733 110.738 15.5467 110.178 16.64C109.645 17.7333 109.098 19.1333 108.538 20.84C109.978 19.56 111.245 18.3333 112.338 17.16C113.458 15.9867 114.498 14.68 115.458 13.24C115.618 13.1067 115.898 13.04 116.298 13.04C116.671 13.04 117.031 13.1067 117.378 13.24C117.725 13.3467 117.965 13.5067 118.098 13.72C117.618 15 117.378 16.2667 117.378 17.52C117.378 18.6933 117.551 19.5733 117.898 20.16C117.871 20.32 117.685 20.6267 117.338 21.08C117.018 21.5333 116.658 21.96 116.258 22.36C115.538 21.9867 114.898 21.48 114.338 20.84C113.778 20.1733 113.365 19.4533 113.098 18.68C111.845 19.56 110.778 20.4267 109.898 21.28C109.018 22.1067 108.258 23.04 107.618 24.08C107.005 25.0933 106.471 26.2667 106.018 27.6C105.591 28.9333 105.178 30.52 104.778 32.36C104.538 32.3333 104.245 32.24 103.898 32.08C103.578 31.9467 103.245 31.7733 102.898 31.56C102.578 31.3467 102.285 31.12 102.018 30.88C101.751 30.64 101.578 30.4133 101.498 30.2ZM132.391 14.84C132.658 14.84 132.964 14.8933 133.311 15C133.684 15.08 134.018 15.2 134.311 15.36C134.604 15.4933 134.844 15.64 135.031 15.8C135.244 15.96 135.351 16.1067 135.351 16.24C134.818 17.36 134.324 18.4933 133.871 19.64C133.418 20.76 133.031 21.84 132.711 22.88C132.391 23.92 132.138 24.8933 131.951 25.8C131.791 26.7067 131.711 27.4933 131.711 28.16C131.711 28.9067 131.791 29.5333 131.951 30.04C132.111 30.52 132.378 30.8667 132.751 31.08C132.431 31.2933 132.018 31.4667 131.511 31.6C131.004 31.7333 130.551 31.8 130.151 31.8C128.711 31.8 127.991 30.8133 127.991 28.84C127.991 27.32 128.498 25.24 129.511 22.6C128.978 23.8267 128.364 24.9867 127.671 26.08C126.978 27.1467 126.271 28.0933 125.551 28.92C124.831 29.7467 124.098 30.4267 123.351 30.96C122.631 31.4667 121.964 31.7733 121.351 31.88C120.364 31.8267 119.564 31.36 118.951 30.48C118.338 29.5733 118.031 28.4267 118.031 27.04C118.031 25.5467 118.351 23.9733 118.991 22.32C119.631 20.6667 120.444 19.1333 121.431 17.72C122.444 16.3067 123.538 15.1333 124.711 14.2C125.884 13.24 127.018 12.7333 128.111 12.68C128.378 12.76 128.671 12.92 128.991 13.16C129.338 13.4 129.658 13.68 129.951 14C130.271 14.32 130.538 14.6533 130.751 15C130.964 15.32 131.084 15.6 131.111 15.84C130.044 16 128.938 16.52 127.791 17.4C126.671 18.28 125.644 19.3467 124.711 20.6C123.804 21.8267 123.058 23.1467 122.471 24.56C121.884 25.9733 121.591 27.2933 121.591 28.52C121.591 29.0267 121.778 29.3467 122.151 29.48C122.924 29.32 123.818 28.6667 124.831 27.52C125.844 26.3467 127.071 24.5467 128.511 22.12C128.778 21.64 129.071 21.1067 129.391 20.52C129.738 19.9333 130.084 19.32 130.431 18.68C130.778 18.04 131.111 17.4 131.431 16.76C131.778 16.0933 132.098 15.4533 132.391 14.84ZM160.5 18.72C160.073 18.7467 159.553 19.0267 158.94 19.56C158.327 20.0667 157.66 20.7333 156.94 21.56C156.247 22.36 155.513 23.2533 154.74 24.24C153.993 25.2267 153.26 26.2133 152.54 27.2C151.847 28.16 151.193 29.0667 150.58 29.92C149.967 30.7733 149.447 31.4533 149.02 31.96C148.433 31.72 147.927 31.3733 147.5 30.92C147.073 30.44 146.767 29.8533 146.58 29.16C146.713 28.3333 146.9 27.48 147.14 26.6C147.38 25.6933 147.687 24.76 148.06 23.8C148.46 22.84 148.94 21.84 149.5 20.8C150.087 19.7333 150.793 18.6133 151.62 17.44C151.22 17.4667 150.673 17.76 149.98 18.32C149.287 18.8533 148.54 19.56 147.74 20.44C146.94 21.2933 146.113 22.2667 145.26 23.36C144.407 24.4267 143.607 25.48 142.86 26.52C141.873 27.9067 141.047 29.12 140.38 30.16C139.74 31.2 139.273 31.8133 138.98 32C138.287 31.4933 137.807 30.9467 137.54 30.36C137.273 29.7733 137.073 29.12 136.94 28.4C136.967 27.76 137.06 26.96 137.22 26C137.407 25.04 137.66 24.0533 137.98 23.04C138.593 21.0933 139.38 19.16 140.34 17.24C141.327 15.32 142.273 13.56 143.18 11.96C143.927 12.12 144.593 12.3733 145.18 12.72C145.793 13.0667 146.433 13.5733 147.1 14.24C146.833 15.0667 146.42 15.9467 145.86 16.88C145.3 17.7867 144.713 18.7467 144.1 19.76C143.487 20.7733 142.927 21.8133 142.42 22.88C141.913 23.9467 141.58 25.0267 141.42 26.12C142.167 25.0533 143.047 23.8267 144.06 22.44C145.1 21.0533 146.153 19.7467 147.22 18.52C148.313 17.2933 149.393 16.2533 150.46 15.4C151.527 14.5467 152.487 14.12 153.34 14.12C153.66 14.12 154.007 14.1733 154.38 14.28C154.753 14.3867 155.1 14.52 155.42 14.68C155.74 14.84 156.007 15 156.22 15.16C156.433 15.2933 156.553 15.4 156.58 15.48C156.447 16.0133 156.127 16.7467 155.62 17.68C155.14 18.5867 154.62 19.5467 154.06 20.56C153.5 21.5733 152.98 22.56 152.5 23.52C152.02 24.4533 151.74 25.2 151.66 25.76C152.967 23.9733 154.193 22.36 155.34 20.92C156.487 19.4533 157.567 18.2 158.58 17.16C159.593 16.12 160.527 15.32 161.38 14.76C162.26 14.2 163.087 13.92 163.86 13.92C164.393 13.92 164.887 14.0667 165.34 14.36C165.82 14.6267 166.153 15.0267 166.34 15.56C166.1 16.36 165.7 17.32 165.14 18.44C164.607 19.56 164.06 20.7467 163.5 22C162.94 23.2267 162.433 24.44 161.98 25.64C161.553 26.84 161.34 27.92 161.34 28.88C161.34 29.44 161.42 29.8133 161.58 30C161.74 30.16 161.967 30.24 162.26 30.24C162.58 30.24 162.873 30.1867 163.14 30.08C163.433 29.9467 163.647 29.88 163.78 29.88C163.94 29.9867 164.033 30.12 164.06 30.28C164.087 30.44 164.1 30.5867 164.1 30.72C163.567 31.1467 163.02 31.4933 162.46 31.76C161.9 32.0533 161.273 32.2 160.58 32.2C159.94 32.2 159.407 32.0933 158.98 31.88C158.58 31.6667 158.247 31.3733 157.98 31C157.713 30.6267 157.527 30.2 157.42 29.72C157.313 29.24 157.26 28.72 157.26 28.16C157.26 27.2533 157.38 26.36 157.62 25.48C157.86 24.5733 158.14 23.72 158.46 22.92C158.807 22.0933 159.167 21.3333 159.54 20.64C159.913 19.92 160.233 19.28 160.5 18.72ZM182.286 14.44C182.179 16.0933 181.886 17.52 181.406 18.72C180.926 19.8933 180.233 20.9333 179.326 21.84C178.446 22.72 177.366 23.52 176.086 24.24C174.806 24.96 173.313 25.6533 171.606 26.32C171.606 26.48 171.593 26.6533 171.566 26.84C171.566 27 171.566 27.1733 171.566 27.36C171.566 27.7067 171.593 28.0667 171.646 28.44C171.699 28.8133 171.793 29.16 171.926 29.48C172.059 29.8 172.246 30.0667 172.486 30.28C172.726 30.4667 173.033 30.56 173.406 30.56C174.126 30.56 174.833 30.4 175.526 30.08C176.219 29.76 176.873 29.3733 177.486 28.92C178.126 28.44 178.713 27.9333 179.246 27.4C179.806 26.84 180.299 26.3333 180.726 25.88C180.993 26.12 181.219 26.3467 181.406 26.56C180.206 28.16 178.886 29.4933 177.446 30.56C176.033 31.6 174.686 32.2667 173.406 32.56C171.566 32.3467 170.126 31.68 169.086 30.56C168.073 29.4133 167.566 28.04 167.566 26.44C167.566 25.3467 167.713 24.24 168.006 23.12C168.326 21.9733 168.753 20.88 169.286 19.84C169.846 18.7733 170.486 17.7733 171.206 16.84C171.953 15.9067 172.739 15.0933 173.566 14.4C174.419 13.7067 175.286 13.16 176.166 12.76C177.073 12.36 177.966 12.16 178.846 12.16C180.073 12.32 181.219 13.08 182.286 14.44ZM179.526 15.76C178.806 15.8667 178.059 16.16 177.286 16.64C176.513 17.12 175.779 17.76 175.086 18.56C174.419 19.36 173.806 20.2933 173.246 21.36C172.686 22.4267 172.246 23.5733 171.926 24.8C174.059 23.7333 175.833 22.4267 177.246 20.88C178.659 19.3067 179.419 17.6 179.526 15.76Z" fill="#222222"/>
</svg>
