<svg width="100" height="100" viewBox="0 0 100 100" fill="none" xmlns="http://www.w3.org/2000/svg">
<rect width="100" height="100" rx="20" fill="#222222"/>
<path d="M74.1155 31.56C74.2355 32.24 74.3155 32.72 74.3555 33C74.4355 33.24 74.4756 33.58 74.4756 34.02C74.4756 35.34 74.1755 36.58 73.5755 37.74C73.0155 38.86 72.2355 39.66 71.2355 40.14C70.4356 39.06 69.4555 38.14 68.2955 37.38C67.1355 36.58 65.8555 35.94 64.4555 35.46C63.0955 34.94 61.6755 34.56 60.1955 34.32C58.7155 34.08 57.2755 33.96 55.8755 33.96C54.4755 33.96 53.1555 34.08 51.9155 34.32C50.7155 34.52 49.6355 34.82 48.6755 35.22C47.7555 35.58 47.0155 36.04 46.4555 36.6C45.9355 37.16 45.6755 37.8 45.6755 38.52C45.7955 39.4 46.3355 40.3 47.2955 41.22C48.2555 42.1 49.4355 42.98 50.8355 43.86C52.2355 44.7 53.7755 45.54 55.4555 46.38C57.1755 47.22 58.8555 48.02 60.4955 48.78C62.5355 49.74 64.2955 50.64 65.7755 51.48C67.2555 52.28 68.4755 53.18 69.4355 54.18C70.3955 55.14 71.1155 56.24 71.5955 57.48C72.0755 58.72 72.3155 60.22 72.3155 61.98C72.3155 64.02 71.9755 65.94 71.2955 67.74C70.6155 69.5 69.6155 71.04 68.2955 72.36C67.0155 73.68 65.4555 74.7 63.6155 75.42C61.7755 76.18 59.7155 76.56 57.4355 76.56C55.1955 76.56 52.7755 76.22 50.1755 75.54C47.5755 74.86 45.1355 73.92 42.8555 72.72C40.6155 71.56 38.7355 70.22 37.2155 68.7C35.7355 67.14 34.9955 65.5 34.9955 63.78C34.9955 62.98 35.2155 61.96 35.6555 60.72C36.1355 59.48 36.9755 58.18 38.1755 56.82C38.2955 58.02 38.9355 59.44 40.0955 61.08C41.2955 62.72 43.0755 64.24 45.4355 65.64C47.6355 66.92 49.8955 67.86 52.2155 68.46C54.5755 69.02 56.7755 69.3 58.8155 69.3C61.0555 69.3 62.8755 69.02 64.2755 68.46C65.6755 67.9 66.7755 67.24 67.5756 66.48C68.3755 65.68 68.9355 64.88 69.2555 64.08C69.5755 63.28 69.7555 62.64 69.7956 62.16C69.7555 61.36 69.3755 60.6 68.6556 59.88C67.9755 59.12 67.0355 58.4 65.8355 57.72C64.6755 57 63.3155 56.28 61.7555 55.56C60.1955 54.84 58.5755 54.12 56.8955 53.4C54.3755 52.28 52.1955 51.24 50.3555 50.28C48.5555 49.28 47.0555 48.28 45.8555 47.28C44.6955 46.24 43.8355 45.16 43.2755 44.04C42.7555 42.92 42.4955 41.64 42.4955 40.2C42.4955 37.96 43.1755 35.84 44.5355 33.84C45.8955 31.84 47.8555 30.32 50.4155 29.28C51.6955 28.72 53.0555 28.32 54.4955 28.08C55.9755 27.84 57.4155 27.72 58.8155 27.72C61.4555 27.72 64.0355 28.08 66.5555 28.8C69.0755 29.52 71.5955 30.44 74.1155 31.56Z" fill="#222222"/>
<path d="M74.1155 31.56L78.0547 30.8649L77.6848 28.7691L75.7401 27.9048L74.1155 31.56ZM74.3555 33L70.3957 33.5657L70.4468 33.9227L70.5608 34.2649L74.3555 33ZM73.5755 37.74L70.0227 35.9023L70.0101 35.9266L69.9978 35.9511L73.5755 37.74ZM71.2355 40.14L68.0213 42.5209L69.9879 45.1758L72.9665 43.7461L71.2355 40.14ZM68.2955 37.38L66.0246 40.6729L66.0637 40.6998L66.1034 40.7258L68.2955 37.38ZM64.4555 35.46L63.027 39.1962L63.0922 39.2211L63.1582 39.2438L64.4555 35.46ZM51.9155 34.32L52.5731 38.2656L52.6245 38.257L52.6756 38.2471L51.9155 34.32ZM48.6755 35.22L50.1331 38.945L50.1738 38.9291L50.214 38.9123L48.6755 35.22ZM46.4555 36.6L43.6271 33.7716L43.5748 33.8239L43.5244 33.8782L46.4555 36.6ZM45.6755 38.52H41.6755V38.7915L41.7122 39.0604L45.6755 38.52ZM47.2955 41.22L44.5279 44.108L44.56 44.1386L44.5927 44.1686L47.2955 41.22ZM50.8355 43.86L48.7069 47.2465L48.742 47.2686L48.7776 47.29L50.8355 43.86ZM55.4555 46.38L53.6667 49.9577L53.6834 49.9661L53.7002 49.9743L55.4555 46.38ZM60.4955 48.78L62.1987 45.1607L62.1881 45.1557L62.1774 45.1508L60.4955 48.78ZM65.7755 51.48L63.8011 54.9587L63.8371 54.9792L63.8735 54.9988L65.7755 51.48ZM69.4355 54.18L66.55 56.9501L66.5783 56.9796L66.6071 57.0084L69.4355 54.18ZM71.5955 57.48L67.8653 58.924L67.8653 58.924L71.5955 57.48ZM71.2955 67.74L75.0267 69.1816L75.0321 69.1676L75.0374 69.1536L71.2955 67.74ZM68.2955 72.36L65.4671 69.5316L65.4454 69.5533L65.4239 69.5754L68.2955 72.36ZM63.6155 75.42L62.1579 71.695L62.1231 71.7087L62.0885 71.723L63.6155 75.42ZM50.1755 75.54L49.1634 79.4098L49.1634 79.4098L50.1755 75.54ZM42.8555 72.72L44.7185 69.1803L44.7068 69.1741L44.695 69.168L42.8555 72.72ZM37.2155 68.7L34.3137 71.453L34.3499 71.4912L34.3871 71.5284L37.2155 68.7ZM35.6555 60.72L31.9253 59.276L31.9048 59.3289L31.8858 59.3824L35.6555 60.72ZM38.1755 56.82L42.1557 56.422L41.2433 47.2975L35.1762 54.1735L38.1755 56.82ZM40.0955 61.08L36.8299 63.3899L36.8484 63.4161L36.8674 63.442L40.0955 61.08ZM45.4355 65.64L43.3947 69.0802L43.4093 69.0889L43.424 69.0974L45.4355 65.64ZM52.2155 68.46L51.214 72.3326L51.2529 72.3427L51.292 72.3519L52.2155 68.46ZM64.2755 68.46L65.7611 72.1739L65.7611 72.1739L64.2755 68.46ZM67.5756 66.48L70.3305 69.38L70.3677 69.3447L70.404 69.3084L67.5756 66.48ZM69.2555 64.08L72.9695 65.5656L72.9695 65.5656L69.2555 64.08ZM69.7956 62.16L73.7817 62.4922L73.8039 62.2265L73.7906 61.9602L69.7956 62.16ZM68.6556 59.88L65.6746 62.5472L65.7486 62.6299L65.8271 62.7084L68.6556 59.88ZM65.8355 57.72L63.7261 61.1186L63.794 61.1607L63.8635 61.2001L65.8355 57.72ZM61.7555 55.56L63.4318 51.9282L63.4318 51.9282L61.7555 55.56ZM56.8955 53.4L55.271 57.0552L55.2954 57.0661L55.3199 57.0766L56.8955 53.4ZM50.3555 50.28L48.413 53.7766L48.4588 53.8021L48.5053 53.8263L50.3555 50.28ZM45.8555 47.28L43.1854 50.2583L43.2392 50.3066L43.2948 50.3529L45.8555 47.28ZM43.2755 44.04L39.6475 45.7244L39.6719 45.777L39.6978 45.8289L43.2755 44.04ZM44.5355 33.84L47.8433 36.0892L47.8433 36.0892L44.5355 33.84ZM50.4155 29.28L51.9211 32.9859L51.9702 32.9659L52.0188 32.9446L50.4155 29.28ZM54.4955 28.08L53.8553 24.1316L53.8466 24.133L53.8379 24.1344L54.4955 28.08ZM70.1764 32.2551C70.2965 32.9357 70.366 33.3576 70.3957 33.5657L78.3153 32.4343C78.2651 32.0824 78.1746 31.5443 78.0547 30.8649L70.1764 32.2551ZM70.5608 34.2649C70.5236 34.1534 70.5026 34.0653 70.491 34.0092C70.4792 33.9523 70.4745 33.9152 70.4729 33.9024C70.4704 33.8808 70.4756 33.9147 70.4756 34.02H78.4756C78.4756 33.4184 78.4309 32.577 78.1503 31.7351L70.5608 34.2649ZM70.4756 34.02C70.4756 34.7076 70.3256 35.3166 70.0227 35.9023L77.1284 39.5777C78.0255 37.8434 78.4756 35.9724 78.4756 34.02H70.4756ZM69.9978 35.9511C69.781 36.3849 69.6023 36.487 69.5046 36.5339L72.9665 43.7461C74.8687 42.833 76.2501 41.3351 77.1533 39.5289L69.9978 35.9511ZM74.4498 37.7591C73.3598 36.2876 72.0299 35.0446 70.4877 34.0342L66.1034 40.7258C66.8812 41.2354 67.5113 41.8324 68.0213 42.5209L74.4498 37.7591ZM70.5665 34.0871C69.0911 33.0696 67.4809 32.2687 65.7528 31.6762L63.1582 39.2438C64.2302 39.6113 65.18 40.0904 66.0246 40.6729L70.5665 34.0871ZM65.8841 31.7238C64.2618 31.1035 62.5771 30.6539 60.8358 30.3716L59.5553 38.2684C60.774 38.466 61.9293 38.7765 63.027 39.1962L65.8841 31.7238ZM60.8358 30.3716C59.159 30.0997 57.5045 29.96 55.8755 29.96V37.96C57.0466 37.96 58.2721 38.0603 59.5553 38.2684L60.8358 30.3716ZM55.8755 29.96C54.2475 29.96 52.6712 30.0995 51.1555 30.3929L52.6756 38.2471C53.6399 38.0605 54.7035 37.96 55.8755 37.96V29.96ZM51.258 30.3744C49.8052 30.6165 48.423 30.9919 47.1371 31.5277L50.214 38.9123C50.8481 38.6481 51.6258 38.4235 52.5731 38.2656L51.258 30.3744ZM47.218 31.495C45.9073 32.0079 44.6612 32.7375 43.6271 33.7716L49.284 39.4284C49.3699 39.3425 49.6038 39.1521 50.1331 38.945L47.218 31.495ZM43.5244 33.8782C42.3636 35.1282 41.6755 36.7243 41.6755 38.52H49.6755C49.6755 38.6539 49.6489 38.8272 49.5764 39.0055C49.5056 39.1798 49.4215 39.2843 49.3867 39.3218L43.5244 33.8782ZM41.7122 39.0604C42.0019 41.1846 43.2263 42.8605 44.5279 44.108L50.0632 38.332C49.775 38.0559 49.6465 37.8737 49.6005 37.797C49.5593 37.7284 49.6136 37.7944 49.6389 37.9795L41.7122 39.0604ZM44.5927 44.1686C45.7705 45.2483 47.1544 46.2707 48.7069 47.2465L52.9642 40.4735C51.7167 39.6893 50.7406 38.9517 49.9984 38.2714L44.5927 44.1686ZM48.7776 47.29C50.2772 48.1898 51.9084 49.0786 53.6667 49.9577L57.2444 42.8023C55.6427 42.0014 54.1939 41.2102 52.8935 40.43L48.7776 47.29ZM53.7002 49.9743C55.4432 50.8255 57.1477 51.6372 58.8137 52.4092L62.1774 45.1508C60.5634 44.4028 58.9079 43.6145 57.2109 42.7857L53.7002 49.9743ZM58.7924 52.3993C60.7678 53.3289 62.4328 54.1821 63.8011 54.9587L67.75 48.0013C66.1583 47.0979 64.3033 46.1511 62.1987 45.1607L58.7924 52.3993ZM63.8735 54.9988C65.064 55.6423 65.9307 56.3051 66.55 56.9501L72.3211 51.4099C71.0203 50.0549 69.4471 48.9177 67.6776 47.9612L63.8735 54.9988ZM66.6071 57.0084C67.1819 57.5833 67.5906 58.2143 67.8653 58.924L75.3258 56.036C74.6405 54.2657 73.6091 52.6967 72.264 51.3516L66.6071 57.0084ZM67.8653 58.924C68.1196 59.581 68.3155 60.5629 68.3155 61.98H76.3155C76.3155 59.8771 76.0315 57.859 75.3258 56.036L67.8653 58.924ZM68.3155 61.98C68.3155 63.5664 68.0529 65.0048 67.5537 66.3264L75.0374 69.1536C75.8982 66.8752 76.3155 64.4736 76.3155 61.98H68.3155ZM67.5644 66.2984C67.0831 67.544 66.3885 68.6102 65.4671 69.5316L71.124 75.1884C72.8426 73.4698 74.148 71.456 75.0267 69.1816L67.5644 66.2984ZM65.4239 69.5754C64.5717 70.4543 63.5052 71.1679 62.1579 71.695L65.0731 79.145C67.4059 78.2321 69.4594 76.9057 71.1671 75.1446L65.4239 69.5754ZM62.0885 71.723C60.798 72.256 59.2671 72.56 57.4355 72.56V80.56C60.164 80.56 62.7531 80.104 65.1426 79.117L62.0885 71.723ZM57.4355 72.56C55.597 72.56 53.5207 72.2804 51.1877 71.6702L49.1634 79.4098C52.0304 80.1596 54.7941 80.56 57.4355 80.56V72.56ZM51.1877 71.6702C48.8702 71.0641 46.7171 70.2322 44.7185 69.1803L40.9926 76.2597C43.554 77.6078 46.2808 78.6559 49.1634 79.4098L51.1877 71.6702ZM44.695 69.168C42.7582 68.165 41.2281 67.0557 40.044 65.8716L34.3871 71.5284C36.243 73.3843 38.4729 74.955 41.0161 76.272L44.695 69.168ZM40.1174 65.947C39.1576 64.9353 38.9955 64.2353 38.9955 63.78H30.9955C30.9955 66.7647 32.3134 69.3447 34.3137 71.453L40.1174 65.947ZM38.9955 63.78C38.9955 63.635 39.0525 63.108 39.4253 62.0576L31.8858 59.3824C31.3786 60.812 30.9955 62.325 30.9955 63.78H38.9955ZM39.3858 62.164C39.6455 61.4931 40.1815 60.5923 41.1749 59.4665L35.1762 54.1735C33.7696 55.7677 32.6256 57.4669 31.9253 59.276L39.3858 62.164ZM34.1954 57.218C34.4158 59.4222 35.5059 61.5181 36.8299 63.3899L43.3612 58.7701C42.3651 57.3619 42.1753 56.6178 42.1557 56.422L34.1954 57.218ZM36.8674 63.442C38.477 65.6419 40.7236 67.4956 43.3947 69.0802L47.4764 62.1998C45.4275 60.9844 44.114 59.7981 43.3237 58.718L36.8674 63.442ZM43.424 69.0974C45.9205 70.5499 48.5186 71.6355 51.214 72.3326L53.2171 64.5874C51.2725 64.0845 49.3506 63.2901 47.4471 62.1826L43.424 69.0974ZM51.292 72.3519C53.8996 72.9707 56.4127 73.3 58.8155 73.3V65.3C57.1384 65.3 55.2515 65.0693 53.1391 64.5681L51.292 72.3519ZM58.8155 73.3C61.3403 73.3 63.7176 72.9913 65.7611 72.1739L62.79 64.7461C62.0335 65.0487 60.7708 65.3 58.8155 65.3V73.3ZM65.7611 72.1739C67.4706 71.4901 69.0549 70.5919 70.3305 69.38L64.8206 63.58C64.4962 63.8881 63.8805 64.3099 62.79 64.7461L65.7611 72.1739ZM70.404 69.3084C71.4729 68.2395 72.3959 66.9994 72.9695 65.5656L65.5416 62.5944C65.4752 62.7606 65.2782 63.1205 64.7471 63.6516L70.404 69.3084ZM72.9695 65.5656C73.3402 64.6387 73.6925 63.5634 73.7817 62.4922L65.8094 61.8278C65.8168 61.7386 65.8249 61.7572 65.7799 61.917C65.7376 62.0675 65.6635 62.2899 65.5416 62.5944L72.9695 65.5656ZM73.7906 61.9602C73.6887 59.923 72.7085 58.2761 71.484 57.0516L65.8271 62.7084C65.9416 62.8229 65.9389 62.8509 65.9028 62.7789C65.8843 62.7417 65.86 62.684 65.8393 62.6074C65.8186 62.5302 65.8049 62.4461 65.8005 62.3598L73.7906 61.9602ZM71.6365 57.2128C70.5847 56.0372 69.2616 55.0638 67.8076 54.2399L63.8635 61.2001C64.8095 61.7362 65.3664 62.2028 65.6746 62.5472L71.6365 57.2128ZM67.945 54.3214C66.6153 53.4961 65.1047 52.7003 63.4318 51.9282L60.0793 59.1918C61.5264 59.8597 62.7358 60.5039 63.7261 61.1186L67.945 54.3214ZM63.4318 51.9282C61.8364 51.1918 60.1828 50.457 58.4712 49.7234L55.3199 57.0766C56.9683 57.783 58.5547 58.4881 60.0793 59.1918L63.4318 51.9282ZM58.5201 49.7448C56.0534 48.6484 53.9523 47.6449 52.2058 46.7337L48.5053 53.8263C50.4388 54.8351 52.6977 55.9116 55.271 57.0552L58.5201 49.7448ZM52.2981 46.7834C50.6524 45.8691 49.3744 45.0056 48.4163 44.2071L43.2948 50.3529C44.7367 51.5544 46.4587 52.6909 48.413 53.7766L52.2981 46.7834ZM48.5257 44.3017C47.6521 43.5185 47.1407 42.826 46.8533 42.2511L39.6978 45.8289C40.5304 47.494 41.739 48.9615 43.1854 50.2583L48.5257 44.3017ZM46.9036 42.3556C46.6661 41.844 46.4955 41.1542 46.4955 40.2H38.4955C38.4955 42.1258 38.845 43.996 39.6475 45.7244L46.9036 42.3556ZM46.4955 40.2C46.4955 38.8268 46.8966 37.4814 47.8433 36.0892L41.2278 31.5908C39.4545 34.1986 38.4955 37.0932 38.4955 40.2H46.4955ZM47.8433 36.0892C48.6985 34.8316 49.985 33.7724 51.9211 32.9859L48.91 25.5741C45.7261 26.8676 43.0926 28.8484 41.2278 31.5908L47.8433 36.0892ZM52.0188 32.9446C52.9831 32.5228 54.0241 32.2137 55.1531 32.0256L53.8379 24.1344C52.087 24.4263 50.408 24.9172 48.8123 25.6154L52.0188 32.9446ZM55.1358 32.0284C56.419 31.8203 57.6445 31.72 58.8155 31.72V23.72C57.1866 23.72 55.5321 23.8596 53.8553 24.1316L55.1358 32.0284ZM58.8155 31.72C61.0866 31.72 63.2967 32.029 65.4567 32.6461L67.6544 24.9539C64.7744 24.131 61.8245 23.72 58.8155 23.72V31.72ZM65.4567 32.6461C67.7882 33.3122 70.1327 34.1671 72.491 35.2152L75.7401 27.9048C73.0584 26.7129 70.3629 25.7278 67.6544 24.9539L65.4567 32.6461Z" fill="#FBFBFB"/>
</svg>
